HIERARCHY
ROOT Hips
{
  OFFSET 179.979 97.3047 303.174
  CHANNELS 6 Xposition Yposition Zposition Zrotation Xrotation Yrotation
  JOINT Spine
  {
    OFFSET 0.000859786 9.92346 -1.22733
    CHANNELS 3 Zrotation Xrotation Yrotation
    JOINT Spine1
    {
      OFFSET 0 11.732 0
      CHANNELS 3 Zrotation Xrotation Yrotation
      JOINT Spine2
      {
        OFFSET 0 13.4588 0
        CHANNELS 3 Zrotation Xrotation Yrotation
        JOINT Neck
        {
          OFFSET 2.54812e-05 15.0278 0.877907
          CHANNELS 3 Zrotation Xrotation Yrotation
          JOINT Head
          {
            OFFSET 0 10.3218 3.14243
            CHANNELS 3 Zrotation Xrotation Yrotation
            End Site
            {
              OFFSET 0 0 0
            }
          }
        }
        JOINT LeftShoulder
        {
          OFFSET 6.10582 9.10629 0.757062
          CHANNELS 3 Zrotation Xrotation Yrotation
          JOINT LeftArm
          {
            OFFSET 0 12.9223 0
            CHANNELS 3 Zrotation Xrotation Yrotation
            JOINT LeftForeArm
            {
              OFFSET 0 27.4047 0
              CHANNELS 3 Zrotation Xrotation Yrotation
              JOINT LeftHand
              {
                OFFSET -1.28204e-05 27.6145 0
                CHANNELS 3 Zrotation Xrotation Yrotation
                End Site
                {
                  OFFSET 0 0 0
                }
              }
            }
          }
        }
        JOINT RightShoulder
        {
          OFFSET -6.1057 9.10638 0.757076
          CHANNELS 3 Zrotation Xrotation Yrotation
          JOINT RightArm
          {
            OFFSET 0 12.9223 0
            CHANNELS 3 Zrotation Xrotation Yrotation
            JOINT RightForeArm
            {
              OFFSET 0 27.4047 0
              CHANNELS 3 Zrotation Xrotation Yrotation
              JOINT RightHand
              {
                OFFSET 1.28428e-05 27.6145 1.44975e-05
                CHANNELS 3 Zrotation Xrotation Yrotation
                End Site
                {
                  OFFSET 0 0 0
                }
              }
            }
          }
        }
      }
    }
  }
  JOINT LeftUpLeg
  {
    OFFSET 9.12387 -6.65719 -0.0554031
    CHANNELS 3 Zrotation Xrotation Yrotation
    JOINT LeftLeg
    {
      OFFSET 0 40.5994 0
      CHANNELS 3 Zrotation Xrotation Yrotation
      JOINT LeftFoot
      {
        OFFSET 0 42.099 0
        CHANNELS 3 Zrotation Xrotation Yrotation
        JOINT LeftToeBase
        {
          OFFSET 0 15.7216 0
          CHANNELS 3 Zrotation Xrotation Yrotation
          End Site
          {
            OFFSET 0 0 0
          }
        }
      }
    }
  }
  JOINT RightUpLeg
  {
    OFFSET -9.12503 -6.6556 -0.0553527
    CHANNELS 3 Zrotation Xrotation Yrotation
    JOINT RightLeg
    {
      OFFSET 0 40.5994 0
      CHANNELS 3 Zrotation Xrotation Yrotation
      JOINT RightFoot
      {
        OFFSET 0 42.099 0
        CHANNELS 3 Zrotation Xrotation Yrotation
        JOINT RightToeBase
        {
          OFFSET 0 15.7216 0
          CHANNELS 3 Zrotation Xrotation Yrotation
          End Site
          {
            OFFSET 0 0 0
          }
        }
      }
    }
  }
}
MOTION
Frames:	18
Frame Time:	0.0333333
121.763 10.5572 419.117 78.9821 -6.03451 -90.9079 -0.896972 -6.21547 0.0725143 -1.78887 1.51383 0.374386 -1.83093 8.10819 0.377561 7.18682 6.43548 0.0810734 -7.83574 -54.7898 -0.103969 -72.085 -20.7633 90.83 45.5916 -21.7637 -53.7307 78.4335 -9.16633 0.409317 4.77348 -27.406 19.7309 79.5309 -13.5372 -90.4326 -39.0195 -18.7728 64.5578 -93.1032 -0.0579592 0.263657 1.73405 -14.4339 -21.5114 -160.802 -5.8939 -20.2749 -1.41962 -32.1476 -3.21288 88.8341 87.6251 -89.4332 -0.965278 26.367 -3.60229 159.536 -7.24818 15.9881 -0.849337 -28.4992 6.79565 -107.857 84.384 109.803 0.963536 26.3682 3.55537 
121.466 10.5861 419.073 79.6717 -5.9852 -90.8314 -0.828711 -6.30943 0.111228 -1.65276 1.32588 0.432933 -1.70161 7.92018 0.43658 6.89221 5.39331 0.437065 -7.66698 -53.6468 0.272829 -70.0401 -20.9152 90.9659 47.1318 -24.0594 -48.2436 69.6472 -15.8198 -0.0866311 2.68493 -25.9516 15.8945 77.448 -13.4006 -90.4209 -40.4532 -21.0804 63.1555 -85.2047 -3.99493 0.464802 3.83814 -13.4861 -21.9483 -160.795 -5.37746 -19.6996 -1.53536 -32.0216 -3.60264 131.374 86.2667 -131.263 -0.965278 26.367 -3.60229 159.216 -6.52402 15.0934 -0.888663 -28.5325 7.59143 -125.207 82.5387 126.445 0.963536 26.3682 3.55537 
121.069 10.6351 419.044 80.6829 -5.95871 -90.7472 -0.772655 -6.48472 0.160159 -1.54037 0.975226 0.514208 -1.59863 7.56945 0.518272 6.79687 3.56578 0.713543 -7.52387 -52.2227 0.590892 -68.469 -21.3649 91.1028 49.7652 -25.7906 -45.1483 61.4196 -19.8776 -0.467782 -3.94559 -20.7169 6.70325 75.2166 -13.5708 -90.4025 -42.5348 -23.0386 58.5441 -76.9955 -10.6793 0.752112 6.56455 -11.8322 -18.8929 -160.688 -4.35024 -18.2271 -2.13279 -31.789 -5.14209 139.431 84.2425 -138.969 -0.965278 26.367 -3.60229 158.712 -5.22135 14.2351 -0.768995 -28.5444 9.17181 -130.221 80.4759 130.786 0.963536 26.3682 3.55537 
120.607 10.7087 418.959 81.9736 -5.99495 -90.6849 -0.7323 -6.75597 0.215474 -1.45826 0.432286 0.611154 -1.5277 7.02641 0.615405 6.4199 2.05483 0.834771 -7.25634 -51.0321 0.690395 -67.7299 -21.781 91.1844 53.0946 -26.6922 -43.3017 55.0487 -22.0826 -0.712511 -7.70409 -18.7391 -1.10274 73.7814 -13.505 -90.3861 -44.5936 -24.8953 54.6084 -69.3511 -15.4492 0.9688 7.97797 -10.3904 -16.9762 -160.528 -3.12124 -16.3547 -3.04424 -30.9357 -7.54018 138.356 81.9836 -136.474 -0.965278 26.367 -3.60229 157.892 -3.67902 13.9771 -0.362881 -27.821 10.3891 -133.243 78.8564 132.854 0.963536 26.3682 3.55537 
120.071 10.789 418.856 83.3175 -6.02517 -90.591 -0.704373 -7.07284 0.278248 -1.40002 -0.201709 0.726022 -1.4827 6.39225 0.730253 6.04435 1.51548 0.865084 -6.97134 -50.5397 0.701953 -68.1807 -22.3228 91.1862 57.5216 -25.5672 -46.337 54.5827 -23.236 -0.778844 -7.45781 -16.8708 4.13976 72.9894 -13.7947 -90.3847 -46.9874 -25.1306 53.546 -66.5335 -17.8049 1.07219 8.44149 -10.4703 -17.4851 -160.218 -2.01092 -14.3003 -3.82081 -29.2831 -9.86693 135.903 80.2274 -133.274 -0.965278 26.367 -3.60229 157.034 -2.29726 14.3053 -0.253717 -26.107 10.5749 -135.819 78.1665 135.111 0.963536 26.3682 3.55537 
119.566 10.8864 418.738 84.6546 -5.98154 -90.3707 -0.689746 -7.40831 0.341653 -1.36757 -0.873231 0.845289 -1.46397 5.72055 0.849104 6.36606 1.39417 0.742965 -7.38608 -49.9692 0.583223 -69.2382 -22.1654 91.0609 61.6768 -23.054 -52.5635 58.1295 -22.9992 -0.6903 -6.12563 -14.5238 11.342 73.4783 -14.7401 -90.4216 -50.7592 -23.9202 56.2931 -68.3028 -17.5502 1.05543 7.87891 -10.1247 -23.3899 -159.573 -0.886969 -13.1782 -3.95262 -27.1172 -10.9863 134.925 79.2737 -132.203 -0.965278 26.367 -3.60229 156.192 -0.90691 14.5307 0.0409873 -24.1402 10.7777 -137.094 77.864 136.66 0.963536 26.3682 3.55537 
119.142 10.9697 418.697 85.6828 -5.91615 -90.1841 -0.701484 -7.67946 0.305349 -1.3885 -1.41525 0.77221 -1.47638 5.17861 0.774818 7.07586 1.64291 0.707939 -7.78102 -49.6852 0.675364 -70.6285 -21.962 90.9265 65.1695 -20.8912 -58.8246 61.8669 -21.4017 -0.526423 -5.09201 -13.4741 20.9865 74.3613 -15.091 -90.4184 -53.9759 -22.4271 59.0106 -70.0871 -16.5804 1.00946 6.84343 -12.0675 -30.1039 -158.676 -0.060604 -13.4425 -3.54883 -24.7194 -10.5464 137.438 79.1489 -135.802 -0.965278 26.367 -3.60229 155.19 0.49802 14.8722 0.600962 -22.4207 11.2316 -134.758 78.0616 133.939 0.963536 26.3682 3.55537 
118.909 11.0103 418.519 86.192 -6.23049 -90.0458 -0.816223 -7.82558 0.223111 -1.61556 -1.7076 0.632051 -1.68717 4.88649 0.63369 7.84522 2.25391 0.657301 -8.2143 -49.6533 0.766742 -70.7632 -21.7061 90.8795 66.6025 -18.7988 -63.6141 65.227 -19.3603 -0.350661 -4.63493 -12.7009 28.2731 74.6653 -16.0871 -90.4512 -56.3329 -21.2602 60.8747 -71.1585 -15.6996 0.970216 6.21602 -11.8462 -32.1465 -158.009 0.75014 -14.3979 -3.16354 -22.6535 -9.39368 132.719 81.0089 -131.931 -0.965278 26.367 -3.60229 154.018 1.55642 16.1212 0.81414 -22.1143 10.3539 -127.481 79.9161 125.655 0.963536 26.3682 3.55537 
118.968 11.0977 418.433 85.885 -6.45616 -89.8994 -0.920216 -7.74655 0.0942428 -1.82382 -1.54868 0.399253 -1.86854 5.04565 0.400189 8.38481 3.75814 0.543104 -8.69177 -50.6611 0.69369 -70.626 -21.74 90.8884 66.3452 -18.2147 -64.9192 67.2482 -18.0727 -0.242944 -5.54484 -11.6907 30.9637 74.3446 -16.5947 -90.47 -57.5206 -20.4061 61.7008 -71.647 -15.6179 0.964708 5.89163 -11.8756 -33.6438 -157.514 1.02082 -13.9583 -2.84947 -23.0577 -8.03477 126.497 83.186 -127.247 -0.965278 26.367 -3.60229 153.095 1.20586 15.4785 0.87742 -22.4797 8.98613 -125.695 82.0099 127.419 0.963536 26.3682 3.55537 
119.074 11.4467 418.397 84.9285 -6.54524 -89.8732 -0.969342 -7.42355 -0.0134495 -1.92428 -0.901442 0.200466 -1.94599 5.693 0.200906 8.43162 5.76591 0.430069 -8.79274 -52.4842 0.540753 -70.2021 -21.7938 90.9204 65.7678 -17.7282 -66.214 68.348 -17.19 -0.177018 -6.13284 -12.2338 32.2261 73.7391 -15.4665 -90.4126 -56.6183 -19.9141 62.6459 -71.7447 -15.7154 0.96794 5.59876 -12.2022 -34.7307 -156.982 0.252052 -12.5752 -2.62607 -22.4508 -6.2939 106.244 86.4341 -111.314 -0.965278 26.367 -3.60229 152.622 0.0678342 14.6684 0.325223 -21.2856 6.9789 -102.807 86.1367 111.335 0.963536 26.3682 3.55537 
119.343 12.104 418.352 84.0604 -6.67088 -89.9537 -0.984042 -7.01885 -0.114142 -1.95582 -0.0903466 0.0092691 -1.95536 6.50414 0.00879423 7.72989 7.44375 0.454788 -8.42913 -54.1669 0.412828 -70.3779 -22.1511 90.946 65.1941 -18.0854 -67.2283 68.8462 -16.7588 -0.146035 -5.89462 -13.0484 33.0315 73.3512 -14.2848 -90.3505 -55.4379 -20.4881 63.4926 -71.7285 -15.7512 0.969383 5.51961 -12.3236 -35.7062 -156.226 0.387769 -12.5542 -2.42084 -21.8242 -4.59029 9.02168 85.3531 -18.9261 -0.965278 26.367 -3.60229 151.737 -0.0055061 13.9662 0.589728 -21.1181 6.03071 -28.2439 87.2626 42.9696 0.963536 26.3682 3.55537 
119.329 12.7881 418.316 84.0391 -6.51069 -89.9077 -0.970495 -6.9006 -0.161977 -1.92931 0.14693 -0.0875255 -1.91763 6.7414 -0.0886552 7.77504 8.85364 0.375673 -7.99476 -54.8026 0.52758 -70.6808 -21.8757 90.9032 65.0118 -18.2701 -67.788 69.4398 -16.36 -0.113893 -5.51897 -13.5628 34.4319 73.6362 -13.5218 -90.3111 -54.9102 -20.618 64.0114 -72.2495 -15.4774 0.955763 5.14372 -12.2752 -37.1951 -155.427 1.24652 -11.8896 -2.58822 -21.8483 -3.97121 -8.57623 82.0232 -5.15464 -0.965278 26.367 -3.60229 151.573 1.16684 13.3583 0.53533 -22.0059 5.77344 -0.910777 85.1433 18.2811 0.963536 26.3682 3.55537 
118.914 13.2746 418.122 83.7819 -5.93652 -90.0473 -0.879663 -6.86147 -0.117802 -1.74916 0.224974 -0.0207108 -1.74524 6.81946 -0.0213118 8.02169 9.12742 0.10883 -7.80106 -54.0238 0.471372 -71.5764 -21.4399 90.809 65.9354 -18.2495 -67.5735 70.396 -15.8378 -0.0669228 -5.06909 -13.6749 36.3457 75.0511 -12.5129 -90.2854 -54.6812 -20.7711 63.5355 -73.2469 -14.9143 0.929431 4.91238 -12.2399 -39.0616 -154.198 1.80169 -9.60578 -3.04135 -22.4588 -3.84692 -13.3484 79.0515 -2.71981 -0.965278 26.367 -3.60229 152.294 1.77074 10.8717 0.326952 -22.5699 5.89272 6.33845 82.6043 13.149 0.963536 26.3682 3.55537 
117.867 13.6427 417.918 83.807 -5.78127 -90.5625 -0.892439 -6.98663 -0.0142348 -1.77415 -0.0269845 0.187629 -1.79438 6.56745 0.188384 8.01101 9.69676 -0.0852524 -7.40686 -54.6076 0.378712 -73.3564 -20.7434 90.6571 67.0885 -18.2827 -66.2512 71.5032 -15.0658 -0.00598519 -4.3678 -13.8029 38.0783 77.0382 -11.7522 -90.3021 -55.3911 -20.2216 62.9668 -74.9515 -13.8302 0.878985 4.56708 -11.7817 -40.8109 -153.583 2.19575 -8.95431 -3.1301 -22.6138 -2.94352 -15.6137 74.749 -1.19054 -0.965278 26.367 -3.60229 152.367 2.77481 9.08462 0.409076 -23.046 5.38823 10.1703 78.8364 9.57839 0.963536 26.3682 3.55537 
116.416 14.0378 417.807 84.2797 -5.6806 -90.7357 -0.940497 -7.14463 -0.000125456 -1.86865 -0.343744 0.224766 -1.89318 6.2507 0.225615 7.9691 7.72769 -0.0872797 -6.99377 -53.3429 0.453054 -74.6906 -20.903 90.5877 68.5934 -17.5217 -66.4312 73.4947 -13.4369 0.112237 -3.42639 -14.1029 39.9197 79.0658 -11.9821 -90.3514 -56.918 -19.0758 63.9746 -77.4756 -11.8168 0.789479 4.1494 -11.2777 -42.861 -153.287 3.19768 -9.39758 -2.8521 -22.7539 -1.77494 -17.0343 69.8452 -0.448404 -0.965278 26.367 -3.60229 152.393 3.90434 8.83999 0.393507 -23.194 4.53155 12.1547 74.4119 7.2728 0.963536 26.3682 3.55537 
114.626 14.4212 417.586 84.5622 -5.50752 -90.7377 -0.938317 -7.32312 -0.00763589 -1.86332 -0.700389 0.206489 -1.88573 5.89406 0.207057 6.96925 7.53362 -0.09942 -5.95683 -53.0819 0.426048 -76.3526 -20.5056 90.4725 69.7251 -15.8017 -66.7457 76.1894 -11.4234 0.263821 -2.64523 -14.1473 42.1896 81.0167 -11.539 -90.3939 -58.0742 -17.2874 65.1208 -80.1463 -9.33672 0.683405 3.5269 -10.5567 -45.3509 -153.308 4.04299 -8.81194 -2.67903 -22.598 -1.90346 -16.8205 64.4899 -2.32379 -0.965278 26.367 -3.60229 152.785 4.53079 8.27535 0.359991 -22.852 4.30797 13.0965 69.4211 7.13866 0.963536 26.3682 3.55537 
112.591 14.8158 417.457 84.4422 -5.29484 -90.7366 -0.913263 -7.41004 0.002257 -1.81307 -0.874193 0.218931 -1.83693 5.72025 0.219515 6.20219 7.86574 -0.164949 -5.06663 -52.9969 0.392137 -78.3955 -19.8429 90.3495 70.5555 -13.9827 -66.8542 79.0517 -9.26939 0.424459 -1.8721 -14.0319 44.7083 83.2243 -11.3516 -90.454 -59.3539 -15.4737 66.0535 -82.9661 -6.65594 0.570712 3.07703 -9.76466 -47.789 -153.424 3.97605 -8.6475 -2.65896 -21.8245 -2.22429 -17.9746 60.0452 -4.02141 -0.965278 26.367 -3.60229 153.244 4.80842 7.79801 0.316139 -22.4846 4.27025 13.3132 64.1358 7.53673 0.963536 26.3682 3.55537 
110.43 15.2359 417.321 84.2667 -5.15534 -90.6886 -0.894981 -7.44316 0.00619651 -1.77662 -0.940398 0.222014 -1.80082 5.65405 0.222624 6.16772 7.84384 -0.0677758 -4.90816 -52.6936 0.549383 -80.3017 -19.5017 90.2544 71.4183 -12.0015 -66.9814 81.6363 -7.24956 0.571463 -0.953831 -14.4603 46.1769 85.3682 -11.3296 -90.5126 -60.4252 -13.6386 66.8022 -85.7164 -4.08527 0.463225 2.82931 -9.64323 -48.9557 -153.784 3.76337 -8.74788 -2.51737 -20.8737 -2.87467 -18.0504 56.1615 -5.89241 -0.965278 26.367 -3.60229 153.639 5.02007 7.85774 0.141446 -22.1087 3.8968 13.1011 59.0581 7.40876 0.963536 26.3682 3.55537 
